<svg xmlns="http://www.w3.org/2000/svg" viewBox="0 0 32 32"><defs><linearGradient id="a" x1="1.76" y1="16" x2="30.24" y2="16" gradientTransform="rotate(180 16 16)" gradientUnits="userSpaceOnUse"><stop offset="0" stop-color="#ad5f22"/><stop offset="1" stop-color="#ea965e"/></linearGradient></defs><path class="cls-1" fill="url(#a)" d="M1.8 17.17a14.34 14.34 0 0013 13A14.1 14.1 0 0027 25l.39-.47h-.62A21.38 21.38 0 0019.9 26a10.61 10.61 0 01-4.51.71 11.11 11.11 0 01-7.87-4.11l-.21-.24.63.09a18.29 18.29 0 002.54.18h16.38L16.47 5.23h.47A10.83 10.83 0 0126.77 16a9.39 9.39 0 001.48 5.09l.64 1 .2-.48A14.24 14.24 0 0016.42 1.76H16A14.26 14.26 0 001.8 17.17zm3.56-2.8A10.94 10.94 0 016 11.93l.08-.21a10.71 10.71 0 019.32-6.46h.46a5.93 5.93 0 00-.09 6.17l2.91 4.93 1.54 2.6H10.7c-.5 0-3 0-4.44-1.54a3.7 3.7 0 01-.9-3.05z"/><path class="cls-2" fill="none" d="M0 0h32v32H0z"/></svg>