<svg id="Layer_1"  xmlns="http://www.w3.org/2000/svg" xmlns:xlink="http://www.w3.org/1999/xlink" viewBox="0 0 32 32">
	<defs><linearGradient id="coppergradient" x1="1.76" y1="16" x2="30.24" y2="16" gradientTransform="translate(32 32) rotate(180)" gradientUnits="userSpaceOnUse">
			<stop offset="0" stop-color="#ad5f22"/>
			<stop offset="1" stop-color="#ea965e"/>
	</linearGradient></defs>
	<path class="cls-1" fill="url(#coppergradient)" d="M1.8,17.17a14.34,14.34,0,0,0,13,13A14.1,14.1,0,0,0,27,25l.39-.47-.62,0A21.38,21.38,0,0,0,19.9,26a10.61,10.61,0,0,1-4.51.71,11.11,11.11,0,0,1-7.87-4.11l-.21-.24.63.09a18.29,18.29,0,0,0,2.54.18H26.86L16.47,5.23l.47,0A10.83,10.83,0,0,1,26.77,16a9.39,9.39,0,0,0,1.48,5.09l.64,1,.2-.48A14.24,14.24,0,0,0,16.42,1.76H16A14.26,14.26,0,0,0,1.8,17.17Zm3.56-2.8A10.94,10.94,0,0,1,6,11.93l.08-.21a10.71,10.71,0,0,1,9.32-6.46l.46,0h0a5.93,5.93,0,0,0-.09,6.17l2.91,4.93h0l1.54,2.6H10.7c-.5,0-3,0-4.44-1.54A3.7,3.7,0,0,1,5.36,14.37Z"/>
	<rect class="cls-2" fill="none" width="32" height="32"/>
</svg>