<svg xmlns="http://www.w3.org/2000/svg" width="233.195" height="50"><defs><linearGradient id="b" y1=".5" x2="1" y2=".5" gradientUnits="objectBoundingBox"><stop offset="0" stop-color="#dd9867"/><stop offset="1" stop-color="#a46432"/></linearGradient><linearGradient id="a" y1=".5" x2="1" y2=".5" gradientUnits="objectBoundingBox"><stop offset="0" stop-color="#a46432"/><stop offset="1" stop-color="#dd9867"/></linearGradient></defs><g data-name="Group 47"><g data-name="Group 20"><g data-name="Group 19"><g data-name="Group 17"><g data-name="Group 15" fill="#0c2a4e"><path data-name="Path 41" d="M88.267 19.277a10.589 10.589 0 01-5.247 9.538l6.07 8.888h-8.844l-4.423-7.328h-5.2v7.328h-7.111V15.767a7.547 7.547 0 017.547-7.547h6.717c5.982.001 10.491 4.64 10.491 11.057zm-17.646-4.466v8.975h6.113a4.49 4.49 0 00.044-8.975z"/><path data-name="Path 42" d="M205.541 30.55a15.808 15.808 0 01-13.787 7.674c-9.235 0-15.956-6.764-15.956-15.479 0-8.194 6.72-15.044 15.956-15.044 6.286 0 11.23 2.949 13.874 7.37a9.4 9.4 0 01-9.269.159 9.425 9.425 0 00-4.605-1.112 8.443 8.443 0 00-8.759 8.628 8.687 8.687 0 008.759 8.8 9.058 9.058 0 004.389-1.073 9.594 9.594 0 019.4.076z"/><path data-name="Path 43" d="M232.904 14.811h-15.476v5.072h6.763a6.157 6.157 0 016.157 6.157h-12.92v5.073h8.888a6.59 6.59 0 016.59 6.59h-22.591V13.877a5.657 5.657 0 015.656-5.656h10.342a6.59 6.59 0 016.591 6.59z"/></g><g data-name="Group 16"><path data-name="Path 44" d="M116.751 14.811h-15.474v5.072h6.763a6.157 6.157 0 016.157 6.157h-12.92v5.073h8.889a6.59 6.59 0 016.59 6.59H94.167v-21.91a7.573 7.573 0 017.572-7.573h8.426a6.59 6.59 0 016.586 6.591z" fill="#0c2a4e"/></g></g><g data-name="Group 18" transform="translate(120.32 5.068)"><path data-name="Path 45" d="M0 3.8l16.8 29.1a7.6 7.6 0 002.782-10.384l-9.2-15.938A7.6 7.6 0 00-.002 3.796z" fill="#0c2a4e"/><path data-name="Rectangle 13" d="M24.839 6.582l9.2 15.935a7.6 7.6 0 01-2.782 10.381L14.457 3.8A7.6 7.6 0 0124.84 6.582z" fill="#0c2a4e"/><ellipse data-name="Ellipse 12" cx="3.78" cy="3.879" rx="3.78" ry="3.879" transform="translate(31.122 2.701)" fill="url(#a)"/></g><path data-name="Path 46" d="M296.018 287.807a24.753 24.753 0 00-22.5-22.521 24.344 24.344 0 00-21.055 8.9l-.677.826 1.066-.049a37.078 37.078 0 0011.874-2.489 18.478 18.478 0 017.809-1.243 19.274 19.274 0 0113.6 7.108l.349.419-1.073-.155a33.124 33.124 0 00-4.391-.317H252.7l17.958 30.142-.811-.07a18.726 18.726 0 01-16.988-18.536 16.257 16.257 0 00-2.556-8.8l-1.1-1.72-.354.825a24.616 24.616 0 0021.9 34.306c.248.007.493.011.74.011a24.625 24.625 0 0024.532-26.638zm-6.157 4.831a18.7 18.7 0 01-1.151 4.227l-.146.352a18.5 18.5 0 01-16.1 11.177l-.806.042a10.228 10.228 0 00.165-10.665l-5.023-8.521-2.661-4.493h16.507c.861-.022 5.252.06 7.674 2.672a6.41 6.41 0 011.541 5.209z" transform="translate(-246.859 -265.204)" fill="url(#b)"/><path data-name="Rectangle 14" d="M170.06 8.221v22.492a6.992 6.992 0 01-6.992 6.992V15.213a6.992 6.992 0 016.992-6.992z" fill="#0c2a4e"/></g></g></g></svg>