<svg xmlns="http://www.w3.org/2000/svg" xmlns:xlink="http://www.w3.org/1999/xlink" width="233.195" height="50" viewBox="0 0 233.195 50">
  <defs>
    <linearGradient id="linear-gradient" y1="0.5" x2="1" y2="0.5" gradientUnits="objectBoundingBox">
      <stop offset="0" stop-color="#dd9867"/>
      <stop offset="1" stop-color="#a46432"/>
    </linearGradient>
    <linearGradient id="linear-gradient-2" y1="0.5" x2="1" y2="0.5" gradientUnits="objectBoundingBox">
      <stop offset="0" stop-color="#a46432"/>
      <stop offset="1" stop-color="#dd9867"/>
    </linearGradient>
  </defs>
  <g id="Group_47" data-name="Group 47" transform="translate(-236 -96.343)">
    <g id="Group_20" data-name="Group 20" transform="translate(236 96.343)">

      <g id="Group_19" data-name="Group 19" transform="translate(0)">
        <g id="Group_17" data-name="Group 17" transform="translate(63.51 7.701)">
          <g id="Group_15" data-name="Group 15">
            <path id="Path_41" data-name="Path 41" d="M360.073,287.71a10.589,10.589,0,0,1-5.247,9.538l6.07,8.888h-8.844l-4.423-7.328h-5.2v7.328h-7.111V284.2a7.547,7.547,0,0,1,7.547-7.547h6.717C355.564,276.654,360.073,281.293,360.073,287.71Zm-17.646-4.466v8.975h6.113a4.49,4.49,0,0,0,.044-8.975Z" transform="translate(-335.316 -276.134)" fill="#0c2a4e"/>
            <path id="Path_42" data-name="Path 42" d="M521.455,298.779a15.808,15.808,0,0,1-13.787,7.674c-9.235,0-15.956-6.764-15.956-15.479,0-8.194,6.72-15.044,15.956-15.044,6.286,0,11.23,2.949,13.874,7.37h0a9.4,9.4,0,0,1-9.269.159,9.425,9.425,0,0,0-4.605-1.112,8.443,8.443,0,0,0-8.759,8.628,8.687,8.687,0,0,0,8.759,8.8,9.058,9.058,0,0,0,4.389-1.073,9.594,9.594,0,0,1,9.4.076Z" transform="translate(-379.424 -275.93)" fill="#0c2a4e"/>
            <path id="Path_43" data-name="Path 43" d="M562.376,283.244H546.9v5.072h6.763a6.157,6.157,0,0,1,6.157,6.157H546.9v5.073h8.888a6.59,6.59,0,0,1,6.59,6.59H539.787V282.31a5.657,5.657,0,0,1,5.656-5.656h10.342A6.59,6.59,0,0,1,562.376,283.244Z" transform="translate(-392.982 -276.134)" fill="#0c2a4e"/>
          </g>
          <g id="Group_16" data-name="Group 16" transform="translate(30.657 0.52)">
            <path id="Path_44" data-name="Path 44" d="M400.6,283.244H385.126v5.072h6.763a6.157,6.157,0,0,1,6.157,6.157h-12.92v5.073h8.889a6.59,6.59,0,0,1,6.59,6.59H378.016v-21.91a7.573,7.573,0,0,1,7.572-7.573h8.426A6.59,6.59,0,0,1,400.6,283.244Z" transform="translate(-378.016 -276.654)" fill="#0c2a4e"/>
          </g>
        </g>
        <g id="Group_18" data-name="Group 18" transform="translate(120.32 5.068)">
          <path id="Path_45" data-name="Path 45" d="M414.442,277.155l16.8,29.1h0a7.6,7.6,0,0,0,2.782-10.384l-9.2-15.938a7.6,7.6,0,0,0-10.384-2.782Z" transform="translate(-414.442 -273.355)" fill="#0c2a4e"/>
          <path id="Rectangle_13" data-name="Rectangle 13" d="M7.6,0H26a7.6,7.6,0,0,1,7.6,7.6v0a0,0,0,0,1,0,0H0a0,0,0,0,1,0,0v0A7.6,7.6,0,0,1,7.6,0Z" transform="translate(21.039 0) rotate(60)" fill="#0c2a4e"/>
          <ellipse id="Ellipse_12" data-name="Ellipse 12" cx="3.78" cy="3.879" rx="3.78" ry="3.879" transform="translate(31.122 2.701)" fill="url(#linear-gradient-2)"/>
        </g>
        <path id="Path_46" data-name="Path 46" d="M296.018,287.807a24.753,24.753,0,0,0-22.5-22.521,24.344,24.344,0,0,0-21.055,8.9l-.677.826,1.066-.049a37.078,37.078,0,0,0,11.874-2.489,18.478,18.478,0,0,1,7.809-1.243,19.274,19.274,0,0,1,13.6,7.108l.349.419-1.073-.155a33.124,33.124,0,0,0-4.391-.317H252.7l17.958,30.142-.811-.07a18.726,18.726,0,0,1-16.988-18.536,16.257,16.257,0,0,0-2.556-8.8l-1.1-1.72-.354.825a24.616,24.616,0,0,0,21.9,34.306c.248.007.493.011.74.011a24.625,24.625,0,0,0,24.532-26.638Zm-6.157,4.831a18.7,18.7,0,0,1-1.151,4.227l-.146.352a18.5,18.5,0,0,1-16.1,11.177l-.806.042h0a10.228,10.228,0,0,0,.165-10.665L266.8,289.25h0l-2.661-4.493h16.507c.861-.022,5.252.06,7.674,2.672A6.41,6.41,0,0,1,289.861,292.638Z" transform="translate(-246.859 -265.204)" fill="url(#linear-gradient)"/>
        <path id="Rectangle_14" data-name="Rectangle 14" d="M0,0H22.492a6.992,6.992,0,0,1,6.992,6.992v0a0,0,0,0,1,0,0H6.992A6.992,6.992,0,0,1,0,0V0A0,0,0,0,1,0,0Z" transform="translate(170.06 8.221) rotate(90)" fill="#0c2a4e"/>
      </g>
    </g>
  </g>
</svg>
