<svg xmlns="http://www.w3.org/2000/svg" width="233.195" height="50"><defs><linearGradient id="a" y1=".5" x2="1" y2=".5" gradientUnits="objectBoundingBox"><stop offset="0" stop-color="#dd9867"/><stop offset="1" stop-color="#a46432"/></linearGradient><linearGradient id="b" y1=".5" x2="1" y2=".5" gradientUnits="objectBoundingBox"><stop offset="0" stop-color="#a46432"/><stop offset="1" stop-color="#dd9867"/></linearGradient></defs><g data-name="Group 47"><g data-name="Group 20"><path data-name="Path 40" d="M351.338 326.153l-2.091 6.116h1.081l.532-1.658h2.2l.532 1.658h1.081l-2.082-6.116zm-.23 3.669l.841-2.685h.018l.842 2.685zm5.253 1.658h2.4v.789h-3.439v-6.116h1.037zm8.969-5.327h.948l-1.152 6.116h-1.081l-1.579-4.52h-.017l-1.551 4.52h-1.081l-1.179-6.116h.948l.877 4.6h.018l1.56-4.6h.833l1.577 4.6h.017zm3.064 0l-2.091 6.116h1.081l.532-1.658h2.2l.532 1.658h1.081l-2.083-6.116zm-.23 3.669l.841-2.685h.018l.842 2.685zm6.964-3.669h1.18l-2.022 3.279v2.837h-1.036v-2.837l-2.012-3.279h1.179l1.356 2.2zm5.378 4.475c0 1.144-.921 1.738-2.251 1.738a6.816 6.816 0 01-1.693-.257v-1.072a3.27 3.27 0 001.728.594c.816 0 1.073-.452 1.073-.852 0-1.329-2.916-1.409-2.916-3.146 0-1.09.948-1.577 2.1-1.577a7.527 7.527 0 011.5.169v.957a4.052 4.052 0 00-1.534-.39c-.514 0-.922.23-.922.753.001 1.08 2.917 1.24 2.917 3.083zm4.4-1.6c0 1.462.417 2.526 1.666 2.526A2.908 2.908 0 00388 331.1v.913a4.422 4.422 0 01-1.666.355c-1.781 0-2.57-1.276-2.57-3.181 0-1.8.665-3.129 2.411-3.129 1.418 0 2.056.824 2.056 1.773h-1.152c0-.479-.106-1.037-.9-1.037-1.073-.003-1.269 1.273-1.269 2.231zm7.275-2.872h1.037v6.116h-1.037v-2.792h-2.2v2.792h-1.031v-6.116h1.037v2.534h2.2zm3.783 0l-2.092 6.116h1.081l.533-1.658h2.2l.532 1.658h1.082l-2.082-6.116zm-.231 3.669l.841-2.685h.018l.842 2.685zm7.86-3.669h.949v6.116h-1.161l-2.473-4.724h-.017v4.724h-.948v-6.116h1.277l2.357 4.5h.018zm4.341 2.552h2.189v3.1a3.423 3.423 0 01-1.923.558c-1.826 0-2.606-1.365-2.606-3.164 0-1.958.674-3.146 2.42-3.146 1.427 0 2.038.709 2.038 1.711H408.9a.879.879 0 00-.886-.975c-1.055 0-1.277 1.134-1.277 2.41 0 1.117.222 2.429 1.463 2.429a1.294 1.294 0 00.886-.239v-1.95h-1.152zm4.367 2.774h2.606v.789h-3.643v-6.116h3.573v.789h-2.536v1.763h2.4v.788h-2.4zm10.448-5.327l-2.021 3.279v2.837H419.7v-2.837l-2.012-3.279h1.178l1.356 2.2 1.356-2.2zm2.383-.1c-1.915 0-2.473 1.374-2.473 3.156s.558 3.155 2.473 3.155 2.473-1.373 2.473-3.155-.563-3.156-2.468-3.156zm0 5.575c-1.055 0-1.33-1.117-1.33-2.42s.275-2.42 1.33-2.42 1.33 1.116 1.33 2.42-.279 2.42-1.325 2.42zm6.664-5.477h1.037v4.247c0 1.347-.806 1.967-2.118 1.967a1.864 1.864 0 01-2.127-1.967v-4.245h1.037v4.245c0 .7.275 1.232 1.091 1.232s1.081-.532 1.081-1.232zm4.864 3.04v-.018a1.335 1.335 0 001.215-1.418c0-1.2-.816-1.6-1.968-1.6h-1.852v6.116h1.045v-2.624h.408c.948 0 1.072.328 1.284 1.3l.284 1.32h1.054l-.372-1.72c-.146-.649-.243-1.171-1.094-1.356zm-1.16-.284h-.4v-2.021h.815c.585 0 .913.346.913.984-.004.904-.678 1.037-1.328 1.037zm8.709.284v-.018a1.334 1.334 0 001.214-1.418c0-1.2-.815-1.6-1.967-1.6h-1.852v6.116h1.037v-2.624h.409c.948 0 1.072.328 1.284 1.3l.284 1.32h1.055l-.373-1.72c-.139-.649-.237-1.171-1.087-1.356zm-1.16-.284h-.409v-2.021h.816a.858.858 0 01.913.984c.004.904-.669 1.037-1.317 1.037zm6.636-2.756h1.037v4.247c0 1.347-.806 1.967-2.118 1.967a1.864 1.864 0 01-2.127-1.967v-4.245h1.037v4.245c0 .7.275 1.232 1.091 1.232s1.081-.532 1.081-1.232zm5.928 0h.948v6.116H455.4l-2.473-4.724h-.017v4.724h-.948v-6.116h1.277l2.357 4.5h.018zm5.91 0h.948v6.116h-1.161l-2.473-4.724h-.018v4.724h-.948v-6.116h1.277l2.358 4.5h.017zm2.232 0h1.037v6.116h-1.037zm5.973 0h.948v6.116h-1.161l-2.473-4.724h-.018v4.724h-.948v-6.116h1.277l2.357 4.5h.018zm4.342 2.552h2.189v3.1a3.426 3.426 0 01-1.923.558c-1.826 0-2.605-1.365-2.605-3.164 0-1.958.673-3.146 2.42-3.146 1.427 0 2.038.709 2.038 1.711h-1.152a.878.878 0 00-.886-.975c-1.055 0-1.277 1.134-1.277 2.41 0 1.117.221 2.429 1.462 2.429a1.294 1.294 0 00.886-.239v-1.95h-1.152zm9.658 1.923c0 1.144-.921 1.738-2.252 1.738a6.81 6.81 0 01-1.692-.257v-1.072a3.27 3.27 0 001.728.594c.816 0 1.073-.452 1.073-.852 0-1.329-2.916-1.409-2.916-3.146 0-1.09.948-1.577 2.1-1.577a7.512 7.512 0 011.5.169v.957a4.045 4.045 0 00-1.533-.39c-.514 0-.923.23-.923.753.001 1.08 2.917 1.24 2.917 3.083zm3.978-4.475h1.179l-2.021 3.279v2.837h-1.034v-2.837l-2.013-3.279H485l1.356 2.2zm5.378 4.475c0 1.144-.921 1.738-2.252 1.738a6.817 6.817 0 01-1.692-.257v-1.072a3.271 3.271 0 001.728.594c.816 0 1.073-.452 1.073-.852 0-1.329-2.916-1.409-2.916-3.146 0-1.09.948-1.577 2.1-1.577a7.529 7.529 0 011.5.169v.957a4.053 4.053 0 00-1.534-.39c-.514 0-.922.23-.922.753.002 1.08 2.918 1.24 2.918 3.083zm.238-4.475h4.1v.789H495.9v5.327h-1.037v-5.327h-1.534zm5.795 5.327h2.606v.789h-3.643v-6.116h3.573v.789h-2.533v1.763h2.4v.788h-2.4zm9.81-5.327v6.116h-.948v-4.821h-.018l-1.684 4.821h-.957l-1.684-4.821h-.018v4.821h-.948v-6.116h1.417l1.7 4.884h.019l1.71-4.884z" transform="translate(-275.735 -282.365)" fill="url(#a)"/><g data-name="Group 19"><g data-name="Group 17"><g data-name="Group 15" fill="#0c2a4e"><path data-name="Path 41" d="M88.267 19.277a10.589 10.589 0 01-5.247 9.538l6.07 8.888h-8.844l-4.423-7.328h-5.2v7.328h-7.111V15.767a7.547 7.547 0 017.547-7.547h6.717c5.982.001 10.491 4.64 10.491 11.057zm-17.646-4.466v8.975h6.113a4.49 4.49 0 00.044-8.975z"/><path data-name="Path 42" d="M205.541 30.55a15.808 15.808 0 01-13.787 7.674c-9.235 0-15.956-6.764-15.956-15.479 0-8.194 6.72-15.044 15.956-15.044 6.286 0 11.23 2.949 13.874 7.37a9.4 9.4 0 01-9.269.159 9.425 9.425 0 00-4.605-1.112 8.443 8.443 0 00-8.759 8.628 8.687 8.687 0 008.759 8.8 9.058 9.058 0 004.389-1.073 9.594 9.594 0 019.4.076z"/><path data-name="Path 43" d="M232.904 14.811h-15.476v5.072h6.763a6.157 6.157 0 016.157 6.157h-12.92v5.073h8.888a6.59 6.59 0 016.59 6.59h-22.591V13.877a5.657 5.657 0 015.656-5.656h10.342a6.59 6.59 0 016.591 6.59z"/></g><g data-name="Group 16"><path data-name="Path 44" d="M116.751 14.811h-15.474v5.072h6.763a6.157 6.157 0 016.157 6.157h-12.92v5.073h8.889a6.59 6.59 0 016.59 6.59H94.167v-21.91a7.573 7.573 0 017.572-7.573h8.426a6.59 6.59 0 016.586 6.591z" fill="#0c2a4e"/></g></g><g data-name="Group 18" transform="translate(120.32 5.068)"><path data-name="Path 45" d="M0 3.8l16.8 29.1a7.6 7.6 0 002.782-10.384l-9.2-15.938A7.6 7.6 0 00-.002 3.796z" fill="#0c2a4e"/><path data-name="Rectangle 13" d="M24.839 6.582l9.2 15.935a7.6 7.6 0 01-2.782 10.381L14.457 3.8A7.6 7.6 0 0124.84 6.582z" fill="#0c2a4e"/><ellipse data-name="Ellipse 12" cx="3.78" cy="3.879" rx="3.78" ry="3.879" transform="translate(31.122 2.701)" fill="url(#b)"/></g><path data-name="Path 46" d="M296.018 287.807a24.753 24.753 0 00-22.5-22.521 24.344 24.344 0 00-21.055 8.9l-.677.826 1.066-.049a37.078 37.078 0 0011.874-2.489 18.478 18.478 0 017.809-1.243 19.274 19.274 0 0113.6 7.108l.349.419-1.073-.155a33.124 33.124 0 00-4.391-.317H252.7l17.958 30.142-.811-.07a18.726 18.726 0 01-16.988-18.536 16.257 16.257 0 00-2.556-8.8l-1.1-1.72-.354.825a24.616 24.616 0 0021.9 34.306c.248.007.493.011.74.011a24.625 24.625 0 0024.532-26.638zm-6.157 4.831a18.7 18.7 0 01-1.151 4.227l-.146.352a18.5 18.5 0 01-16.1 11.177l-.806.042a10.228 10.228 0 00.165-10.665l-5.023-8.521-2.661-4.493h16.507c.861-.022 5.252.06 7.674 2.672a6.41 6.41 0 011.541 5.209z" transform="translate(-246.859 -265.204)" fill="url(#a)"/><path data-name="Rectangle 14" d="M170.06 8.221v22.492a6.992 6.992 0 01-6.992 6.992V15.213a6.992 6.992 0 016.992-6.992z" fill="#0c2a4e"/></g></g></g></svg>