<svg xmlns="http://www.w3.org/2000/svg" xmlns:xlink="http://www.w3.org/1999/xlink" width="233.195" height="50" viewBox="0 0 233.195 50">
  <defs>
    <linearGradient id="linear-gradient" y1="0.5" x2="1" y2="0.5" gradientUnits="objectBoundingBox">
      <stop offset="0" stop-color="#dd9867"/>
      <stop offset="1" stop-color="#a46432"/>
    </linearGradient>
    <linearGradient id="linear-gradient-2" y1="0.5" x2="1" y2="0.5" gradientUnits="objectBoundingBox">
      <stop offset="0" stop-color="#a46432"/>
      <stop offset="1" stop-color="#dd9867"/>
    </linearGradient>
  </defs>
  <g id="Group_47" data-name="Group 47" transform="translate(-236 -96.343)">
    <g id="Group_20" data-name="Group 20" transform="translate(236 96.343)">
      <path id="Path_40" data-name="Path 40" d="M351.338,326.153l-2.091,6.116h1.081l.532-1.658h2.2l.532,1.658h1.081l-2.082-6.116Zm-.23,3.669.841-2.685h.018l.842,2.685Zm5.253,1.658h2.4v.789h-3.439v-6.116h1.037Zm8.969-5.327h.948l-1.152,6.116h-1.081l-1.579-4.52h-.017l-1.551,4.52h-1.081l-1.179-6.116h.948l.877,4.6h.018l1.56-4.6h.833l1.577,4.6h.017Zm3.064,0-2.091,6.116h1.081l.532-1.658h2.2l.532,1.658h1.081l-2.083-6.116Zm-.23,3.669.841-2.685h.018l.842,2.685Zm6.964-3.669h1.18l-2.022,3.279v2.837h-1.036v-2.837l-2.012-3.279h1.179l1.356,2.2Zm5.378,4.475c0,1.144-.921,1.738-2.251,1.738a6.816,6.816,0,0,1-1.693-.257v-1.072a3.27,3.27,0,0,0,1.728.594c.816,0,1.073-.452,1.073-.852,0-1.329-2.916-1.409-2.916-3.146,0-1.09.948-1.577,2.1-1.577a7.527,7.527,0,0,1,1.5.169v.957a4.052,4.052,0,0,0-1.534-.39c-.514,0-.922.23-.922.753C377.592,328.625,380.508,328.785,380.508,330.628Zm4.4-1.6c0,1.462.417,2.526,1.666,2.526A2.908,2.908,0,0,0,388,331.1v.913a4.422,4.422,0,0,1-1.666.355c-1.781,0-2.57-1.276-2.57-3.181,0-1.8.665-3.129,2.411-3.129,1.418,0,2.056.824,2.056,1.773h-1.152c0-.479-.106-1.037-.9-1.037C385.106,326.791,384.91,328.067,384.91,329.025Zm7.275-2.872h1.037v6.116h-1.037v-2.792h-2.2v2.792H388.95v-6.116h1.037v2.534h2.2Zm3.783,0-2.092,6.116h1.081l.533-1.658h2.2l.532,1.658H399.3l-2.082-6.116Zm-.231,3.669.841-2.685h.018l.842,2.685Zm7.86-3.669h.949v6.116h-1.161l-2.473-4.724h-.017v4.724h-.948v-6.116h1.277l2.357,4.5h.018Zm4.341,2.552h2.189v3.1a3.423,3.423,0,0,1-1.923.558c-1.826,0-2.606-1.365-2.606-3.164,0-1.958.674-3.146,2.42-3.146,1.427,0,2.038.709,2.038,1.711H408.9a.879.879,0,0,0-.886-.975c-1.055,0-1.277,1.134-1.277,2.41,0,1.117.222,2.429,1.463,2.429a1.294,1.294,0,0,0,.886-.239v-1.95h-1.152Zm4.367,2.774h2.606v.789h-3.643v-6.116h3.573v.789h-2.536v1.763h2.4v.788h-2.4Zm10.448-5.327-2.021,3.279v2.837H419.7v-2.837l-2.012-3.279h1.178l1.356,2.2,1.356-2.2Zm2.383-.1c-1.915,0-2.473,1.374-2.473,3.156s.558,3.155,2.473,3.155,2.473-1.373,2.473-3.155S427.042,326.055,425.137,326.055Zm0,5.575c-1.055,0-1.33-1.117-1.33-2.42s.275-2.42,1.33-2.42,1.33,1.116,1.33,2.42S426.183,331.63,425.137,331.63Zm6.664-5.477h1.037V330.4c0,1.347-.806,1.967-2.118,1.967a1.864,1.864,0,0,1-2.127-1.967v-4.245h1.037V330.4c0,.7.275,1.232,1.091,1.232s1.081-.532,1.081-1.232Zm4.864,3.04v-.018a1.335,1.335,0,0,0,1.215-1.418c0-1.2-.816-1.6-1.968-1.6h-1.852v6.116H435.1v-2.624h.408c.948,0,1.072.328,1.284,1.3l.284,1.32h1.054l-.372-1.72C437.612,329.9,437.515,329.378,436.664,329.193Zm-1.16-.284H435.1v-2.021h.815c.585,0,.913.346.913.984C436.824,328.776,436.15,328.909,435.5,328.909Zm8.709.284v-.018a1.334,1.334,0,0,0,1.214-1.418c0-1.2-.815-1.6-1.967-1.6h-1.852v6.116h1.037v-2.624h.409c.948,0,1.072.328,1.284,1.3l.284,1.32h1.055l-.373-1.72C445.161,329.9,445.063,329.378,444.213,329.193Zm-1.16-.284h-.409v-2.021h.816a.858.858,0,0,1,.913.984C444.373,328.776,443.7,328.909,443.052,328.909Zm6.636-2.756h1.037V330.4c0,1.347-.806,1.967-2.118,1.967a1.864,1.864,0,0,1-2.127-1.967v-4.245h1.037V330.4c0,.7.275,1.232,1.091,1.232s1.081-.532,1.081-1.232Zm5.928,0h.948v6.116H455.4l-2.473-4.724h-.017v4.724h-.948v-6.116h1.277l2.357,4.5h.018Zm5.91,0h.948v6.116h-1.161l-2.473-4.724h-.018v4.724h-.948v-6.116h1.277l2.358,4.5h.017Zm2.232,0h1.037v6.116h-1.037Zm5.973,0h.948v6.116h-1.161l-2.473-4.724h-.018v4.724h-.948v-6.116h1.277l2.357,4.5h.018Zm4.342,2.552h2.189v3.1a3.426,3.426,0,0,1-1.923.558c-1.826,0-2.605-1.365-2.605-3.164,0-1.958.673-3.146,2.42-3.146,1.427,0,2.038.709,2.038,1.711h-1.152a.878.878,0,0,0-.886-.975c-1.055,0-1.277,1.134-1.277,2.41,0,1.117.221,2.429,1.462,2.429a1.294,1.294,0,0,0,.886-.239v-1.95h-1.152Zm9.658,1.923c0,1.144-.921,1.738-2.252,1.738a6.81,6.81,0,0,1-1.692-.257v-1.072a3.27,3.27,0,0,0,1.728.594c.816,0,1.073-.452,1.073-.852,0-1.329-2.916-1.409-2.916-3.146,0-1.09.948-1.577,2.1-1.577a7.512,7.512,0,0,1,1.5.169v.957a4.045,4.045,0,0,0-1.533-.39c-.514,0-.923.23-.923.753C480.814,328.625,483.73,328.785,483.73,330.628Zm3.978-4.475h1.179l-2.021,3.279v2.837H485.83v-2.837l-2.013-3.279H485l1.356,2.2Zm5.378,4.475c0,1.144-.921,1.738-2.252,1.738a6.817,6.817,0,0,1-1.692-.257v-1.072a3.271,3.271,0,0,0,1.728.594c.816,0,1.073-.452,1.073-.852,0-1.329-2.916-1.409-2.916-3.146,0-1.09.948-1.577,2.1-1.577a7.529,7.529,0,0,1,1.5.169v.957a4.053,4.053,0,0,0-1.534-.39c-.514,0-.922.23-.922.753C490.171,328.625,493.087,328.785,493.087,330.628Zm.238-4.475h4.1v.789H495.9v5.327h-1.037v-5.327h-1.534Zm5.795,5.327h2.606v.789h-3.643v-6.116h3.573v.789H499.12v1.763h2.4v.788h-2.4Zm9.81-5.327v6.116h-.948v-4.821h-.018l-1.684,4.821h-.957l-1.684-4.821h-.018v4.821h-.948v-6.116h1.417l1.7,4.884h.019l1.71-4.884Z" transform="translate(-275.735 -282.365)" fill="url(#linear-gradient)"/>
      <g id="Group_19" data-name="Group 19" transform="translate(0)">
        <g id="Group_17" data-name="Group 17" transform="translate(63.51 7.701)">
          <g id="Group_15" data-name="Group 15">
            <path id="Path_41" data-name="Path 41" d="M360.073,287.71a10.589,10.589,0,0,1-5.247,9.538l6.07,8.888h-8.844l-4.423-7.328h-5.2v7.328h-7.111V284.2a7.547,7.547,0,0,1,7.547-7.547h6.717C355.564,276.654,360.073,281.293,360.073,287.71Zm-17.646-4.466v8.975h6.113a4.49,4.49,0,0,0,.044-8.975Z" transform="translate(-335.316 -276.134)" fill="#0c2a4e"/>
            <path id="Path_42" data-name="Path 42" d="M521.455,298.779a15.808,15.808,0,0,1-13.787,7.674c-9.235,0-15.956-6.764-15.956-15.479,0-8.194,6.72-15.044,15.956-15.044,6.286,0,11.23,2.949,13.874,7.37h0a9.4,9.4,0,0,1-9.269.159,9.425,9.425,0,0,0-4.605-1.112,8.443,8.443,0,0,0-8.759,8.628,8.687,8.687,0,0,0,8.759,8.8,9.058,9.058,0,0,0,4.389-1.073,9.594,9.594,0,0,1,9.4.076Z" transform="translate(-379.424 -275.93)" fill="#0c2a4e"/>
            <path id="Path_43" data-name="Path 43" d="M562.376,283.244H546.9v5.072h6.763a6.157,6.157,0,0,1,6.157,6.157H546.9v5.073h8.888a6.59,6.59,0,0,1,6.59,6.59H539.787V282.31a5.657,5.657,0,0,1,5.656-5.656h10.342A6.59,6.59,0,0,1,562.376,283.244Z" transform="translate(-392.982 -276.134)" fill="#0c2a4e"/>
          </g>
          <g id="Group_16" data-name="Group 16" transform="translate(30.657 0.52)">
            <path id="Path_44" data-name="Path 44" d="M400.6,283.244H385.126v5.072h6.763a6.157,6.157,0,0,1,6.157,6.157h-12.92v5.073h8.889a6.59,6.59,0,0,1,6.59,6.59H378.016v-21.91a7.573,7.573,0,0,1,7.572-7.573h8.426A6.59,6.59,0,0,1,400.6,283.244Z" transform="translate(-378.016 -276.654)" fill="#0c2a4e"/>
          </g>
        </g>
        <g id="Group_18" data-name="Group 18" transform="translate(120.32 5.068)">
          <path id="Path_45" data-name="Path 45" d="M414.442,277.155l16.8,29.1h0a7.6,7.6,0,0,0,2.782-10.384l-9.2-15.938a7.6,7.6,0,0,0-10.384-2.782Z" transform="translate(-414.442 -273.355)" fill="#0c2a4e"/>
          <path id="Rectangle_13" data-name="Rectangle 13" d="M7.6,0H26a7.6,7.6,0,0,1,7.6,7.6v0a0,0,0,0,1,0,0H0a0,0,0,0,1,0,0v0A7.6,7.6,0,0,1,7.6,0Z" transform="translate(21.039 0) rotate(60)" fill="#0c2a4e"/>
          <ellipse id="Ellipse_12" data-name="Ellipse 12" cx="3.78" cy="3.879" rx="3.78" ry="3.879" transform="translate(31.122 2.701)" fill="url(#linear-gradient-2)"/>
        </g>
        <path id="Path_46" data-name="Path 46" d="M296.018,287.807a24.753,24.753,0,0,0-22.5-22.521,24.344,24.344,0,0,0-21.055,8.9l-.677.826,1.066-.049a37.078,37.078,0,0,0,11.874-2.489,18.478,18.478,0,0,1,7.809-1.243,19.274,19.274,0,0,1,13.6,7.108l.349.419-1.073-.155a33.124,33.124,0,0,0-4.391-.317H252.7l17.958,30.142-.811-.07a18.726,18.726,0,0,1-16.988-18.536,16.257,16.257,0,0,0-2.556-8.8l-1.1-1.72-.354.825a24.616,24.616,0,0,0,21.9,34.306c.248.007.493.011.74.011a24.625,24.625,0,0,0,24.532-26.638Zm-6.157,4.831a18.7,18.7,0,0,1-1.151,4.227l-.146.352a18.5,18.5,0,0,1-16.1,11.177l-.806.042h0a10.228,10.228,0,0,0,.165-10.665L266.8,289.25h0l-2.661-4.493h16.507c.861-.022,5.252.06,7.674,2.672A6.41,6.41,0,0,1,289.861,292.638Z" transform="translate(-246.859 -265.204)" fill="url(#linear-gradient)"/>
        <path id="Rectangle_14" data-name="Rectangle 14" d="M0,0H22.492a6.992,6.992,0,0,1,6.992,6.992v0a0,0,0,0,1,0,0H6.992A6.992,6.992,0,0,1,0,0V0A0,0,0,0,1,0,0Z" transform="translate(170.06 8.221) rotate(90)" fill="#0c2a4e"/>
      </g>
    </g>
  </g>
</svg>
